<svg xmlns="http://www.w3.org/2000/svg" width="32" height="32" viewBox="0 0 32 32">
  <title>New tab</title>
  <path
    fill="#4b5563"
    d="M16 2.75c4.85 0 9.09 2.6 11.4 6.48H16a6.76 6.76 0 0 0-5.86 3.38L6.45 6.23A13.2 13.2 0 0 1 16 2.75Z"
  />
  <path
    fill="#4b5563"
    d="M27.98 10.33A13.25 13.25 0 0 1 16 29.25l5.7-9.88A6.76 6.76 0 0 0 22 13.1l-.26-.46h7.38a13.38 13.38 0 0 1-1.14-2.31Z"
  />
  <path
    fill="#4b5563"
    d="M14.83 29.2A13.25 13.25 0 0 1 5.55 7.18l5.72 9.9a6.75 6.75 0 0 0 5.87 5.66h.54l-3.7 6.4c.28.03.56.05.85.06Z"
  />
  <circle cx="16" cy="16" r="5" fill="#f8fafc"/>
  <circle cx="16" cy="16" r="3.25" fill="#4b5563"/>
</svg>
